<svg width="89" height="83" viewBox="0 0 89 83" fill="none" xmlns="http://www.w3.org/2000/svg">
<path fill-rule="evenodd" clip-rule="evenodd" d="M3.73878 42.6179C5.51175 42.6353 5.89416 42.6873 6.31133 42.9819C6.57207 43.1725 6.86756 43.5365 6.95447 43.8138C7.05877 44.0738 7.07615 44.5244 6.98924 44.8364C6.91971 45.131 6.65898 45.5643 6.38086 45.7896C5.92893 46.1709 5.77249 46.1882 1.04455 46.1882L0.523081 45.6683C0.10591 45.2523 0.00161706 44.9923 0.00161706 44.4204C-0.0157651 43.8658 0.10591 43.5538 0.418788 43.2072C0.662138 42.9472 1.04455 42.7046 1.25313 42.6526C1.4791 42.6179 2.59156 42.6006 3.73878 42.6179ZM85.3479 42.5659C86.2518 42.5486 87.26 42.6006 87.5902 42.6699C87.9205 42.7566 88.3724 42.9992 88.5984 43.2419C88.9113 43.5712 89.0155 43.8658 88.9982 44.4204C88.9982 44.9923 88.8939 45.2696 87.99 46.1882H85.5391C83.2273 46.1882 83.0709 46.1709 82.6015 45.7896C82.3408 45.5643 82.0801 45.131 81.9932 44.8364C81.9236 44.4897 81.9584 44.0738 82.0975 43.7271C82.2365 43.4152 82.532 43.0686 82.758 42.9472C82.9839 42.8432 83.2968 42.7046 83.4359 42.6699C83.5749 42.6179 84.444 42.5659 85.3479 42.5659ZM44.7606 0.0174661C44.9518 0.0694602 45.2647 0.19078 45.4559 0.277436C45.6471 0.364093 45.9252 0.606732 46.0643 0.83204C46.2729 1.144 46.3424 2.18389 46.3772 6.84602C46.4119 9.94833 46.3945 12.7907 46.3424 13.172C46.2903 13.5879 46.0643 14.0559 45.7862 14.3505C45.4211 14.7145 45.1604 14.8184 44.5694 14.8184C43.9437 14.8184 43.7003 14.7145 42.7617 13.7786V7.50461C42.7617 1.99324 42.7964 1.16134 43.0398 0.797377C43.1962 0.589401 43.5613 0.294768 43.8741 0.156117C44.1696 0.0347975 44.5694 -0.0345279 44.7606 0.0174661ZM14.2897 12.4094C14.3766 12.3921 14.6895 12.496 15.0024 12.6347C15.2979 12.7733 16.9492 14.2638 18.6353 15.9623C20.7559 18.1114 21.7467 19.2206 21.8162 19.5846C21.8857 19.8792 21.8857 20.2778 21.8336 20.5031C21.7814 20.7111 21.5207 21.0751 21.26 21.3177C20.8776 21.6643 20.5995 21.7683 19.9911 21.751C19.2089 21.7337 19.1915 21.7163 16.028 18.5793C14.2897 16.8462 12.7775 15.2344 12.6732 14.9918C12.5689 14.7491 12.5341 14.2812 12.5863 13.9519C12.6384 13.6226 12.8123 13.2066 12.9861 13.0506C13.1599 12.8947 13.4902 12.6867 13.7335 12.5827C13.9769 12.496 14.2202 12.4094 14.3071 12.4094H14.2897ZM74.7448 12.5654C75.3532 12.548 75.6139 12.652 75.9963 13.0333C76.3787 13.4319 76.483 13.6746 76.4656 14.2985C76.4656 15.0784 76.4483 15.0957 73.1978 18.3367C71.0077 20.5378 69.7735 21.6297 69.4259 21.7163C69.1478 21.803 68.748 21.8376 68.5568 21.803C68.3656 21.7683 68.0005 21.543 67.7398 21.2657C67.4617 21.0057 67.2183 20.6071 67.1836 20.3645C67.1488 20.1218 67.2183 19.7059 67.34 19.4113C67.4617 19.134 69.0087 17.4701 70.7643 15.737C73.9452 12.6 73.98 12.5654 74.7448 12.5654ZM44.7432 17.1755C44.9344 17.2275 45.2473 17.3315 45.4385 17.4355C45.6297 17.5221 45.9078 17.7994 46.0469 18.0421C46.186 18.302 46.2903 18.7873 46.2729 19.134C46.2555 19.5846 46.099 19.8792 45.7166 20.2432C45.3342 20.5725 44.9866 20.7111 44.5173 20.7111C44.1696 20.7111 43.7003 20.5725 43.5091 20.3991C43.3005 20.2432 43.0398 19.9312 42.9355 19.7232C42.8312 19.4979 42.7443 19.1166 42.7443 18.8567C42.7443 18.5793 42.866 18.1807 43.0224 17.9554C43.1789 17.7474 43.5439 17.4528 43.8568 17.3142C44.1522 17.1928 44.552 17.1235 44.7432 17.1755ZM45.004 25.1133C65.3932 25.1306 66.8533 25.1479 67.4791 25.4426C67.8267 25.5985 68.383 25.9972 68.6785 26.3091C68.9913 26.6211 71.477 30.2953 74.1886 34.4895C76.9176 38.6837 79.2468 42.3753 79.3685 42.6873C79.4901 42.9819 79.5944 43.6925 79.5944 44.2471C79.5944 44.9403 79.4901 45.443 79.212 45.9802C78.9861 46.3788 71.6856 54.6979 62.9945 64.4381C49.3147 79.7417 47.0377 82.2028 46.3076 82.5667C45.6993 82.8614 45.143 83 44.4825 83C43.822 83 43.2658 82.8614 42.6574 82.5667C41.91 82.2028 39.7024 79.7937 26.0922 64.5594C17.4359 54.8885 10.1702 46.6561 9.90944 46.2922C9.56179 45.7722 9.44012 45.339 9.38797 44.4724C9.35321 43.7445 9.42274 43.1032 9.57918 42.7219C9.71823 42.3926 12.0127 38.7704 14.6721 34.6628C17.3316 30.5726 19.713 26.9677 19.9563 26.6558C20.217 26.3438 20.7211 25.9105 21.1035 25.7025C21.4859 25.4946 22.1117 25.2693 22.4941 25.1999C22.8765 25.1306 33.0103 25.0959 45.004 25.1133ZM29.1341 34.7148C31.2721 38.0251 33.0798 40.7808 33.1494 40.8501C33.2189 40.9195 34.8702 38.5104 36.8344 35.4948C38.7985 32.4791 40.5715 29.7061 40.7801 29.3421L41.1799 28.6835H25.2231L29.1341 34.7148ZM48.1675 29.3595C48.3935 29.7234 50.1839 32.4791 52.1307 35.4948C54.0948 38.5104 55.7461 40.9541 55.7809 40.9195C55.833 40.9021 57.241 38.7704 58.9097 36.2053C60.5784 33.6576 62.3514 30.9019 62.8554 30.122L63.7767 28.7009H47.7504L48.1675 29.3595ZM13.9595 42.462C20.0432 42.5486 23.6239 42.5486 25.8141 42.514L29.8294 42.462C23.8151 33.207 22.0074 30.486 21.9379 30.4687C21.8683 30.4513 20.0432 33.1377 17.8878 36.448L13.9595 42.462ZM59.3095 42.462C59.3269 42.4966 62.8902 42.514 67.201 42.4966L75.0403 42.462C69.0261 33.1897 67.2183 30.486 67.1314 30.4513C67.0619 30.434 65.2542 33.103 63.1335 36.396C61.0129 39.6889 59.2921 42.41 59.3095 42.462ZM36.6605 42.462C42.6574 42.5313 46.186 42.5313 48.3587 42.514L52.3219 42.462C46.3945 33.3283 44.6042 30.6593 44.5173 30.6246C44.4478 30.59 42.64 33.2417 40.5194 36.5173L36.6605 42.462ZM19.487 51.6822C22.1986 54.7152 27.9347 61.1278 32.2281 65.9459C36.5041 70.7641 40.2413 74.9409 40.5194 75.2182C40.9539 75.6862 40.5368 74.2303 36.4346 61.0065L31.8805 46.2749L14.5678 46.1882L19.487 51.6822ZM36.5041 48.9092C36.9734 50.417 38.9376 56.7603 40.867 63.0343C42.7964 69.3082 44.4304 74.4383 44.4825 74.4383C44.5173 74.4383 46.1512 69.3082 48.0806 63.0343C50.0274 56.7603 51.9916 50.417 52.4783 48.9092L53.3474 46.1709H35.6698L36.5041 48.9092ZM52.5131 60.9545C48.8802 72.7572 48.0458 75.6515 48.3587 75.3049C48.5847 75.0622 52.3219 70.8854 56.65 66.0326C60.9955 61.1625 66.749 54.7152 69.4433 51.6822L74.3624 46.1882H57.0672L52.5131 60.9545Z" fill="white"/>
</svg>
