<svg width="100" height="100" viewBox="0 0 100 100" fill="none" xmlns="http://www.w3.org/2000/svg">
<mask id="mask0_538_23" style="mask-type:alpha" maskUnits="userSpaceOnUse" x="0" y="0" width="100" height="100">
<rect opacity="0.95" width="100" height="100" fill="white"/>
</mask>
<g mask="url(#mask0_538_23)">
</g>
<path fill-rule="evenodd" clip-rule="evenodd" d="M49.7322 9.00288C51.4067 8.97647 53.7987 9.13491 55.0479 9.34616C56.297 9.58382 58.2638 10.0591 59.4333 10.4552C60.6027 10.8513 62.4632 11.6171 63.5529 12.1452C64.6426 12.6998 66.4233 13.756 67.4865 14.4954C68.523 15.2348 70.2772 16.7136 71.3137 17.7698C72.3768 18.8525 73.9184 20.6481 74.7157 21.81C75.5131 22.9455 76.6559 24.9788 77.2938 26.2727C77.9051 27.5666 78.729 29.7848 79.1011 31.1579C79.6858 33.1912 79.8453 34.4323 79.9516 37.7595C80.0579 40.9811 80.0048 42.3543 79.6327 44.2291C79.3935 45.523 78.8353 47.6091 78.4101 48.8503C77.9848 50.0914 77.1343 51.9926 76.5496 53.0753C75.9649 54.158 74.822 55.8744 74.0513 56.9042C73.2539 57.9341 71.8984 59.4657 69.4001 61.9215V57.7756C69.4001 55.4783 69.2672 53.2865 69.1077 52.8904C68.8685 52.2303 69.0014 51.8606 70.1709 49.6424C71.0214 48.0317 71.7655 46.1832 72.1908 44.4932C72.6958 42.4599 72.8553 41.1924 72.8553 39.027C72.8553 37.4427 72.6692 35.2509 72.43 34.1418C72.1908 33.0064 71.6327 31.1843 71.1808 30.1017C70.729 29.019 69.7988 27.2762 69.1077 26.2727C68.4167 25.2693 66.9283 23.5264 65.7855 22.4438C64.616 21.3347 62.8619 19.9352 61.8253 19.3542C60.7888 18.7469 59.1409 17.9283 58.1044 17.5586C57.0678 17.1625 55.3668 16.6872 54.3037 16.4759C53.2671 16.2647 51.3003 16.1062 49.998 16.1062C48.6957 16.1062 46.7289 16.2647 45.6658 16.4759C44.6292 16.6872 42.9016 17.1625 41.8917 17.5586C40.8817 17.9283 39.1807 18.7469 38.1707 19.3542C37.1607 19.9352 35.4332 21.2819 34.3435 22.3117C33.2803 23.3152 31.8717 24.8732 31.2338 25.7446C30.6225 26.616 29.6923 28.2268 29.1607 29.3095C28.6557 30.3921 27.9913 32.2934 27.6989 33.5345C27.3002 35.1453 27.1408 36.6505 27.1408 38.8158C27.1408 40.4794 27.3002 42.6183 27.5129 43.569C27.7255 44.5196 28.2039 46.1304 28.6291 47.1338C29.0278 48.1373 29.7454 49.6689 30.2504 50.5139C31.0212 51.8342 31.1009 52.1247 30.8617 52.8904C30.7022 53.3394 30.5959 55.5839 30.5694 61.9215L28.3899 59.6769C27.1939 58.4358 25.6524 56.5873 24.9879 55.5839C24.3235 54.5541 23.3932 53.0225 22.968 52.1511C22.5162 51.2796 21.8251 49.6424 21.453 48.5334C21.0809 47.3979 20.576 45.3646 20.3368 44.0179C20.0178 42.1958 19.9381 40.6114 20.0444 37.6275C20.1507 34.4587 20.3368 33.1648 20.8949 31.1579C21.267 29.7848 22.0909 27.5666 22.7022 26.2727C23.3401 24.9788 24.4564 22.9983 25.2006 21.9156C25.9713 20.833 27.566 18.9317 28.7886 17.717C30.0112 16.5023 31.9514 14.8915 33.1209 14.1257C34.2903 13.3599 35.9647 12.3829 36.8418 11.934C37.7189 11.5115 39.3933 10.8513 40.5628 10.4816C41.7322 10.112 43.3535 9.68945 44.1508 9.53101C44.9482 9.37257 45.8518 9.18772 46.1442 9.13491C46.4365 9.0821 48.0578 9.02929 49.7322 9.00288V9.00288ZM51.0611 18.6676C52.1508 18.7205 53.8253 18.9581 54.7821 19.1694C55.7389 19.3806 57.4665 20.0144 58.6359 20.5689C59.8054 21.1235 61.4798 22.1269 62.3569 22.7871C63.234 23.4208 64.4034 24.4507 64.935 25.058C65.4931 25.639 66.5031 27.0121 67.1941 28.0684C67.8851 29.0982 68.7622 30.8674 69.1609 31.9501C69.5596 33.0328 70.038 34.8812 70.1974 36.0431C70.4101 37.2578 70.4898 39.0006 70.3835 40.1361C70.3037 41.2188 70.038 42.8824 69.7988 43.833C69.5596 44.7837 69.0014 46.3152 68.5496 47.2659C68.1243 48.2165 67.5396 49.2992 67.2473 49.7217C66.9017 50.197 66.5828 50.3818 66.2904 50.2762C66.0247 50.197 65.3868 50.1706 64.8818 50.2762C64.2705 50.3554 63.234 51.0156 61.8253 52.1511C60.6559 53.1281 58.8751 54.3164 57.8386 54.7917C56.802 55.2934 55.2073 55.8744 54.2505 56.0856C53.2937 56.3233 51.3801 56.5081 49.998 56.5081C48.6159 56.5081 46.7023 56.3233 45.7455 56.0856C44.7887 55.8744 43.1674 55.2934 42.1574 54.7917C41.1475 54.3164 39.3402 53.1281 38.1707 52.1511C36.7621 51.0156 35.7255 50.3554 35.1142 50.2762C34.6092 50.1706 33.9714 50.197 33.7056 50.2762C33.3601 50.3818 33.0411 50.1178 32.4564 49.1935C32.0046 48.4806 31.3667 47.213 31.0212 46.3416C30.6757 45.4702 30.1973 43.7538 29.9581 42.5127C29.6657 41.0075 29.5594 39.476 29.6391 37.8916C29.7189 36.5976 29.9581 34.802 30.1973 33.9306C30.4099 33.0592 31.0743 31.3956 31.6325 30.2337C32.1906 29.0718 33.2006 27.3818 33.8916 26.484C34.5561 25.5597 35.9116 24.1602 36.895 23.3416C37.9049 22.5494 39.6591 21.4139 40.8285 20.833C41.998 20.252 43.5395 19.5919 44.2837 19.3806C45.0013 19.1694 46.3834 18.9053 47.3402 18.7733C48.297 18.6412 49.9714 18.5884 51.0611 18.6676V18.6676ZM34.5029 52.8112C34.8484 52.8112 35.4597 53.1281 35.8584 53.5242C36.2571 53.9467 37.1873 54.7125 37.9315 55.2406C38.6491 55.7687 40.1375 56.6138 41.2272 57.1419C42.3169 57.6436 43.9382 58.251 44.8153 58.4886C45.6923 58.7263 46.41 58.9375 46.41 58.9639C46.41 58.9903 46.3568 62.8193 46.1442 75.8905L44.9482 74.7286C44.2837 74.0948 43.3535 73.2234 41.998 71.9559L38.4897 75.4416C36.5494 77.3692 34.7687 78.9536 34.5029 78.9536C34.2637 78.9536 33.8651 78.7688 33.6524 78.5575C33.3069 78.2142 33.2538 76.3922 33.2006 65.8032C33.1474 55.4783 33.2006 53.3922 33.5195 53.1281C33.7322 52.9433 34.1574 52.8112 34.5029 52.8112V52.8112ZM65.4931 52.8112C65.812 52.8112 66.2373 52.9433 66.4233 53.1281C66.6891 53.3922 66.7423 57.1947 66.7423 88.46L66.1575 88.8561C65.812 89.0673 65.2273 89.2522 64.8286 89.2522C64.2971 89.2522 64.1376 89.3578 64.2705 89.569C64.3768 89.7539 62.9416 88.5128 61.0811 86.7964C59.2206 85.1063 57.6259 83.7068 57.5196 83.7068C57.3867 83.7068 55.8186 85.1856 53.9847 87.0076C51.7256 89.2257 50.4764 90.3084 50.0777 90.3084C49.7322 90.3084 49.2804 90.1236 49.0678 89.9123C48.7223 89.569 48.6691 87.5357 48.6691 74.7814C48.6691 62.8985 48.7488 59.9938 49.0412 59.5977C49.307 59.2808 49.7854 59.1488 50.8219 59.1488C51.6193 59.1224 52.7356 59.0167 53.3203 58.8847C53.905 58.7791 54.6758 58.5942 55.0479 58.515C55.42 58.4358 56.1376 58.2245 56.6426 58.0661C57.1475 57.9077 58.4765 57.3003 59.5662 56.7458C60.6559 56.1913 62.3037 55.0558 63.2339 54.2636C64.1642 53.4714 65.1742 52.8112 65.4931 52.8112V52.8112Z" stroke="black" stroke-width="2.21734"/>
<path d="M46.6762 44.0698L53.4536 37.3626C58.9819 31.87 60.3905 30.6289 60.9752 30.6289C61.4271 30.6289 61.7991 30.8138 61.9586 31.157C62.1181 31.4475 62.1712 31.8964 62.0915 32.1605C62.0383 32.3981 58.6363 35.9102 54.5965 39.924C50.53 43.9642 47.0217 47.265 46.809 47.265C46.5964 47.265 44.4702 45.3373 42.0781 42.9607C39.7127 40.6106 37.7725 38.5244 37.7725 38.366C37.7725 38.1812 38.0117 37.7851 38.304 37.4946C38.5964 37.2041 39.0482 37.0193 39.2874 37.0985C39.5532 37.1513 41.3074 38.7621 46.6762 44.0698Z" fill="black"/>
</svg>
